<?xml version="1.0" encoding="UTF-8"?>
<!-- Blue Dream — decorative SVG background
     - Designed as a reusable, tileable/cover background for web pages
     - Contains layered gradients, faceted crystal shapes, and subtle stars
-->
<svg xmlns="http://www.w3.org/2000/svg" width="1920" height="1080" viewBox="0 0 1920 1080" preserveAspectRatio="xMidYMid slice">
  <defs>
    <!-- soft radial wash -->
    <radialGradient id="g-wash" cx="30%" cy="20%" r="80%">
      <stop offset="0%" stop-color="#c7c8ff" stop-opacity="0.95"/>
      <stop offset="45%" stop-color="#b2c3ff" stop-opacity="0.6"/>
      <stop offset="100%" stop-color="#6d78ff" stop-opacity="0.08"/>
    </radialGradient>

    <!-- diagonal linear gradient for depth -->
    <linearGradient id="g-diag" x1="0%" y1="0%" x2="100%" y2="100%">
      <stop offset="0%" stop-color="#d6dbff" stop-opacity="0.9"/>
      <stop offset="50%" stop-color="#9fb0ff" stop-opacity="0.65"/>
      <stop offset="100%" stop-color="#6a7bff" stop-opacity="0.5"/>
    </linearGradient>

    <!-- crystal fill: polygon gradient with subtle noise-like pattern using feTurbulence -->
    <linearGradient id="g-crystal" x1="0%" y1="0%" x2="0%" y2="100%">
      <stop offset="0%" stop-color="#cfe3ff" stop-opacity="0.95"/>
      <stop offset="45%" stop-color="#b0d1ff" stop-opacity="0.9"/>
      <stop offset="100%" stop-color="#8cafef" stop-opacity="0.85"/>
    </linearGradient>

    <!-- star pattern (small) -->
    <pattern id="p-stars" width="200" height="200" patternUnits="userSpaceOnUse">
      <rect width="200" height="200" fill="transparent" />
      <g fill="#fff" fill-opacity="0.85">
        <circle cx="30" cy="60" r="0.9"/>
        <circle cx="170" cy="20" r="1.1"/>
        <circle cx="110" cy="140" r="0.8"/>
        <circle cx="50" cy="150" r="0.7"/>
        <circle cx="180" cy="95" r="0.6"/>
      </g>
    </pattern>

    <!-- subtle grain filter for texture -->
    <filter id="grain">
      <feTurbulence type="fractalNoise" baseFrequency="0.8" numOctaves="1" stitchTiles="stitch" result="noise" />
      <feColorMatrix type="saturate" values="0" />
      <feComponentTransfer>
        <feFuncA type="table" tableValues="0 0.12"/>
      </feComponentTransfer>
      <feBlend in="SourceGraphic" mode="overlay"/>
    </filter>
  </defs>

  <!-- base wash -->
  <rect width="100%" height="100%" fill="url(#g-wash)"/>

  <!-- diagonal overlay for depth -->
  <rect width="100%" height="100%" fill="url(#g-diag)" opacity="0.45"/>

  <!-- faceted crystal group (decorative) -->
  <g transform="translate(1200,60) scale(1.45) rotate(6)" opacity="0.95">
    <g filter="url(#grain)" opacity="0.95">
      <polygon points="120,20 200,90 160,210 82,170" fill="url(#g-crystal)" stroke="#e6f0ff" stroke-opacity="0.65" stroke-width="1"/>
      <polygon points="60,80 130,120 110,220 40,180" fill="#cfe3ff" opacity="0.95"/>
      <polygon points="210,120 270,180 230,270 170,220" fill="#b7d7ff" opacity="0.9"/>
      <polygon points="20,200 90,240 60,320 10,280" fill="#c6dcff" opacity="0.9"/>
    </g>
    <!-- crystal highlights -->
    <g opacity="0.9">
      <path d="M70 60 L110 85 L85 132 L45 110 Z" fill="#ffffff" fill-opacity="0.12"/>
      <path d="M180 60 L220 85 L200 130 L160 110 Z" fill="#ffffff" fill-opacity="0.08"/>
    </g>
  </g>

  <!-- large soft star field overlay -->
  <rect width="100%" height="100%" fill="url(#p-stars)" opacity="0.06" />

  <!-- moon-like glow on left -->
  <ellipse cx="260" cy="200" rx="380" ry="220" fill="#e8efff" opacity="0.06"/>

  <!-- vignette -->
  <rect width="100%" height="100%" fill="black" opacity="0.02"/>

  <!-- optional metadata for editors -->
  <metadata>Blue Dream SVG background — Layered gradients, crystals, and star texture</metadata>
</svg>
